<?xml version="1.0" encoding="UTF-8"?><svg xmlns="http://www.w3.org/2000/svg" viewBox="0 0 36 36">
 <g id="change1_1"><path d="m36 19.854c-2.482-9.931-10.994-17.945-19.969-13.022 0 0-4.521-1.496-5.174-1.948-0.635-0.44-1.635-0.904-0.912 0.436 0.423 0.782 0.875 1.672 2.403 3.317-4.348 4.321-3.069 9.625-4.605 13.113-1.304 2.962-2.577 4.733-1.31 6.976 1.317 2.33 4.73 3.462 7.018 1.06 1.244-1.307 0.471-1.937 3.132-4.202 2.723-0.543 4.394-1.791 4.394-4.375 0 0 0.795-0.382 1.826 6.009 0.456 2.818-0.157 5.632-0.039 8.783h13.236v-16.147z" fill="#9266CC"/></g>
 <g id="change2_1"><path d="m36 10.956c-0.749-1.038-1.281-3.019-4.094-4.894 0.531 1.312 0.848 3.71 0.595 5.318-0.15-3.923-3.188-6.581-4.376-7.193-2.202-1.137-4.372-0.979-6.799-0.772 0.111 0.168 0.403 0.814 0.32 1.547-0.479-0.875-1.604-1.42-2.333-1.271-3.499 0.713-5.974 2.232-5.091 3.856 8.937-3.477 14.643 2.161 17.736 8.704 0.769 1.625 2.611 7.132 4.041 10.292v-15.587z" fill="#55ACEE"/></g>
 <g id="change2_2"><path d="m16.897 6.731c-2.12 0.564-5.26 2.509-6.537 4.573 0 0-2.589 0.655-3.631-1.845 2.563 0.827 4.826-2.339 6.737-3.511 4.028-2.468 3.314-0.186 3.314-0.186l0.117 0.969z" fill="#55ACEE"/></g>
 <g id="change3_1"><path d="m13.848 8.122l-0.005-0.007c-0.716-0.709-12.895-8.625-13.624-7.896s10.224 9.523 10.93 10.061l0.011 0.006c0.738-0.806 1.69-1.551 2.688-2.164z" fill="#F4900C"/></g>
 <g id="change1_2"><path d="m13.789 3.662c0.573 0.788 3.236 0.794 4.596 3.82 1.359 3.026-1.943 2.63-3.14 1.23-1.334-1.561-1.931-2.863-2.165-3.992-0.124-0.596-0.451-2.649 0.709-1.058z" fill="#9266CC"/></g>
 <g id="change4_1"><path d="m14.209 4.962c0.956 0.573 2.164 1.515 2.517 2.596 0.352 1.081-0.707 0.891-1.349-0.042-0.641-0.934-0.939-1.975-1.285-2.263-0.346-0.289 0.117-0.291 0.117-0.291z" fill="#744EAA"/></g>
 <g id="change5_1"><path d="m16.185 14.396c0.093 0.514-0.248 1.006-0.762 1.099s-1.006-0.248-1.099-0.761 0.248-1.006 0.762-1.099c0.515-0.093 1.006 0.248 1.099 0.761z" fill="#292F33"/></g>
 <g id="change4_2"><path d="m8.63 26.877c0.119 0.658-0.181 1.263-0.67 1.351-0.49 0.089-0.984-0.372-1.104-1.03-0.119-0.659 0.182-1.265 0.671-1.354 0.49-0.088 0.984 0.373 1.103 1.033z" fill="#744EAA"/></g>
</svg>